Coordinates
version=1
nRows=27
nColumns=12
inDegrees=yes

Units are S.I. units (second, meters, Newtons, ...)
Angles are in degrees

endheader
time	SC_y	SC_z	SC_x	AC_y	AC_z	AC_x	GH_y	GH_z	GH_yy	EL_x	PS_y
       0.0              -54.52          9.099          21.99          49.88          1.441         -1.137          65.09          55.83          4.309          130.9          95.56
   0.02609              -54.52          9.103          21.99          49.88          1.441         -1.138          65.07          55.83          4.328          130.9          95.55
   0.05217              -54.52          9.107           22.0          49.88           1.44         -1.139          65.05          55.82          4.348          130.9          95.54
   0.07826              -54.51          9.111           22.0          49.88           1.44         -1.141          65.04          55.81           4.37          130.9          95.53
    0.1043              -54.51          9.116           22.0          49.88           1.44         -1.143          65.02           55.8          4.392          130.9          95.52
    0.1304              -54.51          9.121           22.0          49.87           1.44         -1.144           65.0          55.79          4.417          130.9          95.51
    0.1565              -54.51          9.127          22.01          49.87           1.44         -1.146          64.97          55.79          4.443          130.9           95.5
    0.1826              -54.51          9.133          22.01          49.87          1.439         -1.148          64.95          55.78           4.47          130.9          95.48
    0.2087               -54.5          9.139          22.01          49.86          1.439          -1.15          64.92          55.77            4.5          130.9          95.47
    0.2348               -54.5          9.146          22.01          49.86          1.439         -1.152           64.9          55.75          4.532          130.9          95.45
    0.2609               -54.5          9.153          22.02          49.85          1.439         -1.154          64.87          55.74          4.566          130.9          95.44
    0.2869               -54.5          9.161          22.02          49.85          1.438         -1.157          64.84          55.73          4.603          130.9          95.42
     0.313              -54.49           9.17          22.02          49.85          1.438          -1.16           64.8          55.72          4.642          130.8           95.4
    0.3391              -54.49          9.179          22.03          49.84          1.438         -1.163          64.77           55.7          4.685          130.8          95.38
    0.3652              -54.49          9.189          22.03          49.83          1.437         -1.166          64.73          55.68          4.732          130.8          95.35
    0.3913              -54.48          9.199          22.04          49.83          1.437         -1.169          64.68          55.67          4.782          130.8          95.33
    0.4174              -54.48          9.211          22.04          49.82          1.437         -1.173          64.64          55.65          4.837          130.8           95.3
    0.4435              -54.48          9.224          22.05          49.81          1.436         -1.177          64.59          55.63          4.896          130.8          95.27
    0.4695              -54.47          9.237          22.06          49.81          1.436         -1.182          64.53           55.6          4.961          130.8          95.24
    0.4956              -54.47          9.253          22.06           49.8          1.435         -1.187          64.47          55.58          5.032          130.8          95.21
    0.5217              -54.46          9.269          22.07          49.79          1.434         -1.192           64.4          55.55           5.11          130.8          95.17
    0.5478              -54.45          9.288          22.08          49.78          1.434         -1.198          64.33          55.52          5.196          130.7          95.13
    0.5739              -54.45          9.308          22.09          49.77          1.433         -1.204          64.25          55.49          5.291          130.7          95.08
       0.6              -54.44           9.33           22.1          49.75          1.432         -1.212          64.16          55.45          5.397          130.7          95.03
    0.6261              -54.43          9.355          22.11          49.74          1.431          -1.22          64.06          55.41          5.514          130.7          94.97
    0.6521              -54.42          9.383          22.12          49.73           1.43         -1.229          63.94          55.37          5.644          130.6          94.91
    0.6782              -54.41          9.414          22.14          49.71          1.429         -1.239          63.82          55.31           5.79          130.6          94.84
